<svg width="612" height="602" viewBox="0 0 612 602" fill="none" xmlns="http://www.w3.org/2000/svg">
<mask id="path-1-outside-1_0_1" maskUnits="userSpaceOnUse" x="0" y="0" width="612" height="602" fill="black">
<rect fill="white" width="612" height="602"/>
<path d="M462 25C531.036 25 587 80.9644 587 150V400C587 453.171 553.801 498.585 507.002 516.651C485.099 552.824 445.374 577 400 577H150C80.9644 577 25 521.036 25 452V202C25 148.829 58.1983 103.414 104.997 85.3477C126.9 49.1753 166.627 25 212 25H462Z"/>
</mask>
<path d="M462 25C531.036 25 587 80.9644 587 150V400C587 453.171 553.801 498.585 507.002 516.651C485.099 552.824 445.374 577 400 577H150C80.9644 577 25 521.036 25 452V202C25 148.829 58.1983 103.414 104.997 85.3477C126.9 49.1753 166.627 25 212 25H462Z" fill="#00A47E"/>
<path d="M507.002 516.651L497.999 493.329L490.037 496.402L485.617 503.703L507.002 516.651ZM104.997 85.3477L114.001 108.67L121.962 105.597L126.382 98.2966L104.997 85.3477ZM462 25V50C517.228 50 562 94.7715 562 150H587H612C612 67.1573 544.843 0 462 0V25ZM587 150H562V400H587H612V150H587ZM587 400H562C562 442.496 535.481 478.859 497.999 493.329L507.002 516.651L516.005 539.974C572.121 518.311 612 463.845 612 400H587ZM507.002 516.651L485.617 503.703C468.055 532.706 436.269 552 400 552V577V602C454.478 602 502.144 572.941 528.387 529.6L507.002 516.651ZM400 577V552H150V577V602H400V577ZM150 577V552C94.7715 552 50 507.228 50 452H25H0C0 534.843 67.1573 602 150 602V577ZM25 452H50V202H25H0V452H25ZM25 202H50C50 159.503 76.5192 123.14 114.001 108.67L104.997 85.3477L95.9936 62.0252C39.8774 83.6885 0 138.155 0 202H25ZM104.997 85.3477L126.382 98.2966C143.944 69.2933 175.731 50 212 50V25V0C157.522 0 109.856 29.0573 83.6119 72.3988L104.997 85.3477ZM212 25V50H462V25V0H212V25Z" fill="white" mask="url(#path-1-outside-1_0_1)"/>
<path d="M87 150C87 80.9644 142.964 25 212 25H462C531.036 25 587 80.9644 587 150V400C587 469.036 531.036 525 462 525H212C142.964 525 87 469.036 87 400V150Z" fill="#14DBAC"/>
<path d="M25 202C25 132.964 80.9644 77 150 77H400C469.036 77 525 132.964 525 202V452C525 521.036 469.036 577 400 577H150C80.9644 577 25 521.036 25 452V202Z" fill="#00A47E"/>
<path d="M149.044 234.503C151.826 234.503 154.459 234.858 156.513 235.963C157.592 236.544 158.579 237.368 159.282 238.504C159.992 239.65 160.291 240.914 160.291 242.171C160.291 244.775 159.194 247.035 157.099 248.613C155.187 250.053 152.678 250.755 150.001 251.065L149.963 251.069L149.926 251.073L141.072 251.907C136.77 252.312 133.366 252.909 130.796 253.658C128.21 254.412 126.771 255.235 126.062 255.904C125.852 256.12 125.504 256.642 125.566 258.062C125.629 259.465 126.092 261.428 127.149 264.035L127.369 264.565L127.383 264.598L127.396 264.631L176.088 386.747L176.089 386.748C176.505 387.793 176.911 388.278 177.158 388.485C177.343 388.64 177.512 388.711 177.817 388.711C178.443 388.711 178.787 388.557 179.031 388.373C179.311 388.162 179.714 387.714 180.099 386.748L180.112 386.715L227.145 272.101C228.546 268.53 229.362 265.568 229.68 263.174C230.001 260.752 229.783 259.129 229.355 258.081L229.282 257.902L229.229 257.716C229.048 257.078 228.438 256.118 226.367 255.115C224.282 254.105 221.118 253.265 216.685 252.73L216.645 252.726L216.605 252.721L204.986 251.053L204.935 251.046L204.884 251.037C202.241 250.578 199.818 249.787 197.982 248.404C195.988 246.902 194.79 244.758 194.79 242.171C194.79 240.914 195.089 239.65 195.799 238.504C196.502 237.368 197.489 236.544 198.568 235.963C200.622 234.858 203.255 234.503 206.036 234.503H276.309C279.121 234.503 281.808 234.899 283.9 236.137C286.28 237.545 287.555 239.85 287.555 242.587C287.555 245.05 286.516 247.167 284.705 248.759C283.013 250.246 280.752 251.193 278.268 251.816L273.287 253.067C268.291 254.322 264.251 256.543 261.051 259.676C257.84 262.82 254.188 268.577 250.188 277.336L167.767 471.079C159.631 490.577 152.148 505.288 145.297 515.047C138.936 524.621 132.451 531.338 125.726 534.537C119.257 537.881 111.874 539.5 103.672 539.5C93.1179 539.5 84.3045 536.698 77.6162 530.751C71.0693 525.203 67.5264 518.443 67.5264 510.576C67.5264 504.266 70.0062 498.879 74.7852 494.625C79.6519 490.293 86.101 488.321 93.7119 488.321C99.8253 488.321 105.029 489.295 108.545 491.943C111.516 494.182 113.784 496.853 115.173 499.991C116.242 502.407 117.297 504.521 118.334 506.345C118.547 506.719 119.204 507.493 121.932 507.493C124.512 507.493 127.273 506.141 130.193 502.23L130.227 502.187L130.261 502.145C133.238 498.407 137.683 489.816 143.609 475.865L143.62 475.842L143.631 475.817C147.24 467.662 149.315 460.789 149.996 455.143L150.009 455.04L150.027 454.938C151.042 449.332 150.889 443.265 149.494 436.7L149.476 436.612L149.461 436.523C148.42 429.993 145.781 421.827 141.417 411.966L141.402 411.932L141.388 411.896L81.0752 267.274L81.042 267.19C78.4727 260.555 76.1772 257.101 74.4531 255.803L74.3486 255.723L74.249 255.636C72.7843 254.349 69.8952 253.096 64.9551 252.297L56.6719 251.05L56.6328 251.044L56.5938 251.037C53.9513 250.578 51.5276 249.787 49.6924 248.404C47.6976 246.902 46.5001 244.757 46.5 242.171C46.5 240.914 46.799 239.65 47.5088 238.504C48.2124 237.368 49.199 236.544 50.2783 235.963C52.3322 234.858 54.9646 234.503 57.7461 234.503H149.044ZM536.4 397.678C552.468 397.678 565.5 410.689 565.5 426.747C565.5 442.806 552.468 455.817 536.4 455.817C520.333 455.817 507.3 442.806 507.3 426.747C507.3 410.688 520.333 397.678 536.4 397.678ZM315.979 224.5C319.497 224.5 323.608 225.339 325.266 229.084C325.731 230.137 326.623 231.374 328.138 232.77C328.647 233.115 329.715 233.578 331.68 233.934C333.706 234.3 336.384 234.503 339.771 234.503H450.436C453.471 234.503 456.355 234.978 458.574 236.427C461.052 238.044 462.235 240.564 462.235 243.421C462.235 245.484 461.301 247.495 460.151 249.277C459.263 251.201 457.868 253.401 456.076 255.838L332.719 433.337C331.986 434.445 331.838 435.101 331.84 435.46C331.982 435.547 332.207 435.658 332.547 435.768C333.364 436.031 334.625 436.224 336.451 436.224H361.351C383.042 436.224 397.607 433.979 405.672 429.943C413.803 425.593 420.523 418.648 425.774 408.891L425.784 408.873L442.384 378.448L442.426 378.371L442.472 378.296C445.12 373.973 448.878 371.206 453.756 371.206C456.583 371.206 459.592 371.888 461.494 374.323C463.384 376.744 463.343 379.83 462.696 382.59V382.592L448.31 443.858L448.309 443.857C447.575 447.129 445.854 449.825 443.066 451.625C440.367 453.368 436.994 454.061 433.282 454.061H288.866C285.83 454.061 282.947 453.585 280.728 452.137C278.25 450.519 277.066 447.999 277.066 445.142C277.067 442.983 278.088 440.881 279.311 439.039C280.372 437.441 281.628 435.413 283.085 432.944L283.153 432.829L283.229 432.719L407.174 255.171L407.257 255.052L407.35 254.939C407.884 254.296 408.027 253.914 408.065 253.776C408.046 253.749 408.019 253.708 407.976 253.659L407.814 253.478L407.681 253.275C407.615 253.177 406.874 252.339 403.403 252.339H380.164C362.296 252.339 349.54 254.69 341.452 258.993C333.536 263.405 326.957 269.775 321.717 278.195L321.709 278.209L321.7 278.223L309.527 297.395L309.526 297.394C306.879 301.689 303.133 304.437 298.272 304.437C295.561 304.437 292.608 303.881 290.672 301.693C288.64 299.398 288.675 296.431 289.331 293.887L302.611 237.204C303.433 233.516 304.85 230.327 307.136 228.031C309.52 225.637 312.566 224.5 315.979 224.5Z" fill="white" stroke="white" stroke-width="7"/>
</svg>
